<svg id="flat" height="512" viewBox="0 0 512 512" width="512" xmlns="http://www.w3.org/2000/svg"><rect fill="#548aff" height="304" rx="16" width="464" x="24" y="48"/><rect fill="#91c0ff" height="144" rx="16" width="232" x="216" y="88"/><circle cx="48" cy="72" fill="#fa8669" r="8"/><circle cx="72" cy="72" fill="#ffc431" r="8"/><circle cx="96" cy="72" fill="#3cde8d" r="8"/><path d="m200 352h112v80h-112z" fill="#c5dafa"/><path d="m200 432h112v32h-112z" fill="#e0edff"/><path d="m264 352v32a8 8 0 0 1 -16 0v-32z" fill="#b6caf0"/><rect fill="#a6cfff" height="144" rx="16" width="232" x="64" y="168"/><circle cx="112" cy="216" fill="#ffc431" r="16"/><circle cx="400" cy="136" fill="#ffc431" r="16"/><g fill="#7dafff"><path d="m152 200h24v16h-24z"/><path d="m192 200h72v16h-72z"/><path d="m152 232h64v16h-64z"/><path d="m96 264h24v16h-24z"/><path d="m216 264h48v16h-48z"/><path d="m136 264h64v16h-64z"/><path d="m248 120h40v16h-40z"/><path d="m304 120h56v16h-56z"/><path d="m328 152h32v16h-32z"/><path d="m328 184h48v16h-48z"/><path d="m392 184h32v16h-32z"/></g></svg>